<svg id="Layer_1" data-name="Layer 1" xmlns="http://www.w3.org/2000/svg" viewBox="0 0 157 200"><defs><style>.cls-1{fill:#1fa059;}.cls-2,.cls-3{fill:#fff;}.cls-2{opacity:0.23;}</style></defs><path class="cls-1" d="M148,39a92.64186,92.64186,0,0,1-35,0A92.68261,92.68261,0,0,1,79,25,110.24516,110.24516,0,0,1,44,38,110.17675,110.17675,0,0,1,9.85714,39C8.451,50.42738.53812,123.63563,49,166a106.74766,106.74766,0,0,0,29,18,102.2761,102.2761,0,0,0,28-16C156.60881,127.09154,149.24185,50.23868,148,39Z"/><path class="cls-2" d="M79,179a97.07008,97.07008,0,0,0,26-15c47.53709-38.49771,41.09962-110.32519,39.96228-121.2327a92.14821,92.14821,0,0,1-33.48114,0A92.17691,92.17691,0,0,1,78.9566,30Z"/><polygon class="cls-3" points="49 102.872 62.728 128 127 72 66.472 115.795 49 102.872"/></svg>