<svg id="Layer_1" data-name="Layer 1" xmlns="http://www.w3.org/2000/svg" viewBox="0 0 157 200"><defs><style>.cls-1{fill:#ce0909;}.cls-2{opacity:0.23;}.cls-3{fill:#fff;}</style></defs><path class="cls-1" d="M21.78617,4.90012H137.21384A11.78616,11.78616,0,0,1,149,16.68628V182.21384A11.78616,11.78616,0,0,1,137.21384,194H21.78616A11.78616,11.78616,0,0,1,10,182.21384V16.68629A11.78617,11.78617,0,0,1,21.78617,4.90012Z"/><g class="cls-2"><path class="cls-3" d="M139.36308,193.96445H19.63692A9.6055,9.6055,0,0,1,10,184.39067q18.80474-23.71561,37.61176-48.70036C80.97365,91.33144,111.4722,47.58313,139.36308,4.86457A9.6055,9.6055,0,0,1,149,14.43835V184.39067A9.6055,9.6055,0,0,1,139.36308,193.96445Z"/></g></svg>