<svg id="Layer_1" data-name="Layer 1" xmlns="http://www.w3.org/2000/svg" viewBox="0 0 157 200"><defs><style>.cls-1{fill:#e0bb05;}.cls-2{opacity:0.23;}.cls-3{fill:#fff;}</style></defs><path class="cls-1" d="M21.6402,5.008H136.21384A11.78616,11.78616,0,0,1,148,16.79415V182.39933a11.78616,11.78616,0,0,1-11.78616,11.78616H21.6402A11.78616,11.78616,0,0,1,9.854,182.39933V16.79416A11.78617,11.78617,0,0,1,21.6402,5.008Z"/><g class="cls-2"><path class="cls-3" d="M138.42229,194.14993H19.43174a9.57771,9.57771,0,0,1-9.5777-9.57771q18.68919-23.72535,37.38067-48.72034C80.39162,91.47479,110.70278,47.70853,138.42229,4.97243A9.57771,9.57771,0,0,1,148,14.55014V184.57222A9.57771,9.57771,0,0,1,138.42229,194.14993Z"/></g></svg>